<svg xmlns="http://www.w3.org/2000/svg" width="980" height="420" viewBox="0 0 980 420" role="img" aria-label="Domain Overall Preference Delta">
<style>
text { font-family: 'Segoe UI', sans-serif; fill: #1f2937; }.title { font-size: 24px; font-weight: 700; }.axis { stroke: #94a3b8; stroke-width: 1; }.grid { stroke: #e2e8f0; stroke-width: 1; }.tick { font-size: 12px; fill: #64748b; }.label { font-size: 13px; }.value { font-size: 12px; font-weight: 600; }.legend { font-size: 12px; }
</style>
<rect width="980" height="420" fill="#fffaf1" />
<text class="title" x="24" y="40">Domain Overall Preference Delta</text>
<line class="grid" x1="80" y1="330.0" x2="950" y2="330.0" />
<text class="tick" x="70" y="334.0" text-anchor="end">0.0</text>
<line class="grid" x1="80" y1="280.0" x2="950" y2="280.0" />
<text class="tick" x="70" y="284.0" text-anchor="end">0.4</text>
<line class="grid" x1="80" y1="230.0" x2="950" y2="230.0" />
<text class="tick" x="70" y="234.0" text-anchor="end">0.9</text>
<line class="grid" x1="80" y1="180.0" x2="950" y2="180.0" />
<text class="tick" x="70" y="184.0" text-anchor="end">1.3</text>
<line class="grid" x1="80" y1="130.0" x2="950" y2="130.0" />
<text class="tick" x="70" y="134.0" text-anchor="end">1.8</text>
<line class="grid" x1="80" y1="80.0" x2="950" y2="80.0" />
<text class="tick" x="70" y="84.0" text-anchor="end">2.2</text>
<line class="axis" x1="80" y1="80" x2="80" y2="330" />
<line class="axis" x1="80" y1="330" x2="950" y2="330" />
<rect x="126.4" y="80.0" width="40.0" height="250.0" rx="8" fill="#2a9d8f" />
<text class="value" x="146.4" y="92.0" text-anchor="middle">2.20</text>
<text class="label" x="225.0" y="386" text-anchor="middle">ecommerce</text>
<rect x="416.4" y="273.2" width="40.0" height="56.8" rx="8" fill="#2a9d8f" />
<text class="value" x="436.4" y="267.2" text-anchor="middle">0.50</text>
<text class="label" x="515.0" y="386" text-anchor="middle">restaurants</text>
<rect x="706.4" y="170.9" width="40.0" height="159.1" rx="8" fill="#2a9d8f" />
<text class="value" x="726.4" y="164.9" text-anchor="middle">1.40</text>
<text class="label" x="805.0" y="386" text-anchor="middle">saas</text>
<rect x="760" y="36" width="14" height="14" rx="3" fill="#2a9d8f" />
<text class="legend" x="782" y="47">Pipeline - Baseline</text>
</svg>