<svg xmlns="http://www.w3.org/2000/svg" width="980" height="370" viewBox="0 0 980 370" role="img" aria-label="Failure Tags by Category">
<style>
text { font-family: 'Segoe UI', sans-serif; fill: #1f2937; }.title { font-size: 24px; font-weight: 700; }.axis { stroke: #94a3b8; stroke-width: 1; }.grid { stroke: #e2e8f0; stroke-width: 1; }.tick { font-size: 12px; fill: #64748b; }.label { font-size: 13px; }.value { font-size: 12px; font-weight: 600; }.legend { font-size: 12px; }
</style>
<rect width="980" height="370" fill="#fffaf1" />
<text class="title" x="24" y="40">Failure Tags by Category</text>
<line class="grid" x1="260.0" y1="76" x2="260.0" y2="344" />
<text class="tick" x="260.0" y="360" text-anchor="middle">0</text>
<line class="grid" x1="320.9" y1="76" x2="320.9" y2="344" />
<text class="tick" x="320.9" y="360" text-anchor="middle">1</text>
<line class="grid" x1="381.8" y1="76" x2="381.8" y2="344" />
<text class="tick" x="381.8" y="360" text-anchor="middle">2</text>
<line class="grid" x1="442.7" y1="76" x2="442.7" y2="344" />
<text class="tick" x="442.7" y="360" text-anchor="middle">3</text>
<line class="grid" x1="503.6" y1="76" x2="503.6" y2="344" />
<text class="tick" x="503.6" y="360" text-anchor="middle">4</text>
<line class="grid" x1="564.5" y1="76" x2="564.5" y2="344" />
<text class="tick" x="564.5" y="360" text-anchor="middle">5</text>
<line class="grid" x1="625.5" y1="76" x2="625.5" y2="344" />
<text class="tick" x="625.5" y="360" text-anchor="middle">6</text>
<line class="grid" x1="686.4" y1="76" x2="686.4" y2="344" />
<text class="tick" x="686.4" y="360" text-anchor="middle">7</text>
<line class="grid" x1="747.3" y1="76" x2="747.3" y2="344" />
<text class="tick" x="747.3" y="360" text-anchor="middle">8</text>
<line class="grid" x1="808.2" y1="76" x2="808.2" y2="344" />
<text class="tick" x="808.2" y="360" text-anchor="middle">9</text>
<line class="grid" x1="869.1" y1="76" x2="869.1" y2="344" />
<text class="tick" x="869.1" y="360" text-anchor="middle">10</text>
<line class="grid" x1="930.0" y1="76" x2="930.0" y2="344" />
<text class="tick" x="930.0" y="360" text-anchor="middle">11</text>
<rect x="760" y="36" width="14" height="14" rx="3" fill="#d06767" />
<text class="legend" x="782" y="47">Baseline</text>
<rect x="760" y="54" width="14" height="14" rx="3" fill="#5f83bf" />
<text class="legend" x="782" y="65">Pipeline</text>
<text class="label" x="246" y="96" text-anchor="end">overall_preference_gap</text>
<rect x="260" y="80" width="670.0" height="14" rx="6" fill="#d06767" />
<rect x="260" y="100" width="121.8" height="14" rx="6" fill="#5f83bf" />
<text class="value" x="936.0" y="92">11</text>
<text class="value" x="387.8" y="112">2</text>
<text class="label" x="246" y="144" text-anchor="end">overall_quality_drop</text>
<rect x="260" y="128" width="670.0" height="14" rx="6" fill="#d06767" />
<rect x="260" y="148" width="121.8" height="14" rx="6" fill="#5f83bf" />
<text class="value" x="936.0" y="140">11</text>
<text class="value" x="387.8" y="160">2</text>
<text class="label" x="246" y="192" text-anchor="end">groundedness_gap</text>
<rect x="260" y="176" width="426.4" height="14" rx="6" fill="#d06767" />
<rect x="260" y="196" width="121.8" height="14" rx="6" fill="#5f83bf" />
<text class="value" x="692.4" y="188">7</text>
<text class="value" x="387.8" y="208">2</text>
<text class="label" x="246" y="240" text-anchor="end">distinctiveness_gap</text>
<rect x="260" y="224" width="365.5" height="14" rx="6" fill="#d06767" />
<rect x="260" y="244" width="60.9" height="14" rx="6" fill="#5f83bf" />
<text class="value" x="631.5" y="236">6</text>
<text class="value" x="326.9" y="256">1</text>
<text class="label" x="246" y="288" text-anchor="end">relevance_miss</text>
<rect x="260" y="272" width="243.6" height="14" rx="6" fill="#d06767" />
<rect x="260" y="292" width="60.9" height="14" rx="6" fill="#5f83bf" />
<text class="value" x="509.6" y="284">4</text>
<text class="value" x="326.9" y="304">1</text>
</svg>